<?xml version="1.0" encoding="UTF-8"?>
<svg width="26px" height="26px" viewBox="0 0 26 26" version="1.1" xmlns="http://www.w3.org/2000/svg" xmlns:xlink="http://www.w3.org/1999/xlink">
    <title>icons/burst BN</title>
    <g id="Page-1" stroke="none" stroke-width="1" fill="none" fill-rule="evenodd">
        <g id="Valet-landing" transform="translate(-144.000000, -86.000000)">
            <g id="Header" transform="translate(0.000000, 75.000000)">
                <g id="Group" transform="translate(145.000000, 12.000000)">
                    <path d="M24,12 C24,18.6274322 18.627676,24 12,24 C5.37232397,24 0,18.6274322 0,12 C0,5.37256777 5.37232397,0 12,0 C18.627676,0 24,5.37256777 24,12 Z" id="Stroke-1" stroke="#E41D23" stroke-width="1.5"></path>
                    <path d="M17,15.9641288 L13.2418683,16.9555812 C13.0705761,16.993963 12.9456171,17.0230962 12.8220621,16.9745409 C12.7270557,16.9361591 12.6479618,16.8344242 12.5824402,16.7377761 L11.4222399,15.1659726 C11.3576543,15.0744112 11.2780924,14.9685145 11.1844901,14.9296703 C11.0614031,14.881115 10.935976,14.9102482 10.7651519,14.9490924 L7,15.9641288 L7,9.06465577 L10.7506435,8.04453263 C10.9224037,8.00615082 11.0473628,7.97701766 11.1737258,8.02511052 C11.2668601,8.05886799 11.3501661,8.16568959 11.4166238,8.26233768 L12.5763561,9.8336788 C12.6465578,9.93032689 12.7209716,10.0366861 12.8169139,10.0704435 C12.943277,10.1185364 13.065428,10.0949524 13.2390602,10.0561082 L17,9.05540716 L17,15.9641288 Z" id="Fill-3" fill="#E41D23" fill-rule="nonzero"></path>
                </g>
            </g>
        </g>
    </g>
</svg>